<svg xmlns="http://www.w3.org/2000/svg" width="200" height="34" viewBox="0 0 200 34"><path fill="#045B9E" d="M23.72 7.452V3.27L8.77.476V14.15L0 17l8.77 2.85v13.674l14.95-2.794v-4.182l-9.505 1.236V6.217"/><path fill="#595758" d="M40.395 17l-2.853-1.64V5.634l-9.9-1.85V7.81l6.72.872V25.32l-6.72.872v4.026l9.9-1.85v-9.73"/><g><path fill="#045B9E" d="M60.165 23.807V9.67h3.4c1.423 0 2.546.14 3.37.42.885.276 1.688.742 2.408 1.403 1.46 1.33 2.19 3.08 2.19 5.246 0 2.173-.76 3.93-2.28 5.273-.763.67-1.563 1.14-2.4 1.4-.78.264-2.322.394-3.756.394h-2.932zm2.134-2.005h1.394c.958 0 1.756-.1 2.39-.302.635-.214 1.21-.552 1.72-1.017 1.05-.96 1.577-2.206 1.577-3.744 0-1.55-.518-2.81-1.556-3.774-.934-.86-2.31-1.292-4.13-1.292H62.3v10.128z"/><path fill="#595758" d="M176.4 23.807V9.67h3.4c1.422 0 2.546.14 3.37.42.884.276 1.686.742 2.406 1.403 1.46 1.33 2.19 3.08 2.19 5.246 0 2.173-.762 3.93-2.28 5.273-.764.67-1.564 1.14-2.4 1.4-.782.264-2.322.394-3.757.394h-2.93zm2.134-2.005h1.394c.96 0 1.755-.1 2.39-.302.635-.214 1.21-.552 1.722-1.017 1.05-.96 1.575-2.206 1.575-3.744 0-1.55-.52-2.81-1.556-3.774-.936-.86-2.312-1.292-4.13-1.292h-1.395v10.128z"/><path fill="#045B9E" d="M74.862 9.69l4.126 8.932L83.17 9.69h2.334l-6.56 14.117L72.526 9.69h2.335zM99.544 23.807V9.14l9.878 9.922V9.67h2.134v14.565l-9.878-9.893v9.465h-2.134zM125.175 10.385v2.523c-1.233-1.03-2.508-1.547-3.827-1.547-1.453 0-2.677.524-3.673 1.567-1 1.037-1.5 2.308-1.5 3.81 0 1.482.5 2.733 1.5 3.754 1.002 1.02 2.228 1.53 3.68 1.53.752 0 1.39-.123 1.915-.367.293-.122.597-.285.91-.493.315-.208.646-.458.994-.752v2.58c-1.22.692-2.503 1.038-3.845 1.038-2.022 0-3.746-.706-5.175-2.115-1.422-1.422-2.133-3.137-2.133-5.145 0-1.802.595-3.408 1.786-4.818 1.464-1.726 3.36-2.59 5.685-2.59 1.27 0 2.5.342 3.682 1.028zM137.727 11.674V9.67h-9.534v14.137h9.534v-2.005h-7.4v-3.577l4.005-1.492v-.017l-4.005-1.492v-3.55"/><path fill="#595758" d="M200 11.674h-7.4v3.55l4.005 1.49v.02l-4.005 1.49v3.578h7.4v2.005h-9.534V9.67H200v2.004zM155.397 10.385v2.523c-1.233-1.03-2.51-1.547-3.83-1.547-1.45 0-2.675.524-3.67 1.567-1 1.037-1.502 2.308-1.502 3.81 0 1.482.5 2.733 1.502 3.754 1 1.02 2.228 1.53 3.68 1.53.75 0 1.39-.123 1.915-.367.293-.122.596-.285.912-.493.313-.208.644-.458.993-.752v2.58c-1.22.692-2.504 1.038-3.846 1.038-2.02 0-3.745-.706-5.173-2.115-1.423-1.422-2.134-3.137-2.134-5.145 0-1.802.596-3.408 1.787-4.818 1.464-1.726 3.36-2.59 5.685-2.59 1.27 0 2.497.342 3.682 1.028zM158.44 16.636c0-1.992.73-3.7 2.19-5.13 1.45-1.428 3.197-2.143 5.236-2.143 2.015 0 3.743.72 5.182 2.162 1.447 1.44 2.17 3.172 2.17 5.19 0 2.033-.726 3.758-2.178 5.175-1.46 1.423-3.22 2.134-5.283 2.134-1.825 0-3.464-.63-4.917-1.896-1.6-1.397-2.4-3.23-2.4-5.492zm2.153.022c0 1.562.524 2.845 1.574 3.852 1.044 1.007 2.25 1.51 3.617 1.51 1.482 0 2.734-.515 3.753-1.54 1.02-1.034 1.53-2.296 1.53-3.786 0-1.506-.503-2.768-1.51-3.786-1.002-1.026-2.24-1.538-3.718-1.538-1.473 0-2.715.513-3.73 1.538-1.012 1.01-1.517 2.26-1.517 3.75z"/><path fill="#045B9E" d="M96.834 23.807L90.272 9.69l-6.416 14.117h2.335l4.128-8.93 1.627 3.476-2.596 1.01 3.75 1.46 1.4 2.984M57.422 23.807L51.006 9.69l-6.562 14.117h2.335l4.18-8.93 1.57 3.394-2.81 1.093 4.04 1.57 1.326 2.874"/></g></svg>