<svg xmlns="http://www.w3.org/2000/svg" width="330" height="182" viewBox="0 0 330 182"><path fill="#045B9E" d="M173.266 24.58V9.993L121.108.242v47.704l-30.593 9.946 30.593 9.945v47.704l52.158-9.748V91.204l-33.155 4.31V20.27"/><path fill="#595758" d="M231.443 57.892l-9.955-5.717v-33.94l-34.54-6.456v14.045l23.45 3.047v58.04l-23.45 3.048v14.044l34.54-6.456v-33.94"/><g><path fill="#045B9E" d="M33.352 180.85v-29.992h7.212c3.017 0 5.4.298 7.148.893 1.878.584 3.58 1.574 5.11 2.974 3.095 2.823 4.642 6.532 4.642 11.13 0 4.612-1.612 8.34-4.837 11.19-1.62 1.423-3.315 2.416-5.088 2.97-1.66.558-4.928.836-7.972.836h-6.216zm4.526-4.252h2.96c2.032 0 3.722-.216 5.07-.644 1.346-.45 2.563-1.17 3.65-2.154 2.227-2.034 3.34-4.68 3.34-7.946 0-3.288-1.1-5.957-3.3-8.003-1.982-1.825-4.903-2.74-8.762-2.74h-2.96v21.488z"/><path fill="#595758" d="M279.933 180.85v-29.992h7.214c3.018 0 5.4.298 7.148.893 1.877.584 3.58 1.574 5.108 2.974 3.096 2.823 4.643 6.532 4.643 11.13 0 4.612-1.613 8.34-4.836 11.19-1.62 1.423-3.317 2.416-5.09 2.97-1.66.558-4.927.836-7.97.836h-6.217zm4.528-4.252h2.96c2.03 0 3.722-.216 5.07-.644 1.345-.45 2.563-1.17 3.65-2.154 2.228-2.034 3.342-4.68 3.342-7.946 0-3.288-1.1-5.957-3.3-8.003-1.984-1.825-4.903-2.74-8.762-2.74h-2.958v21.488z"/><path fill="#045B9E" d="M64.53 150.902l8.753 18.947 8.87-18.948h4.954l-13.92 29.948-13.61-29.95h4.952zM116.893 180.85v-31.114l20.955 21.046v-19.924h4.526v30.9L121.42 160.77v20.08h-4.527zM171.264 152.376v5.352c-2.615-2.188-5.32-3.284-8.117-3.284-3.083 0-5.68 1.108-7.79 3.323-2.125 2.2-3.186 4.895-3.186 8.08 0 3.146 1.062 5.802 3.186 7.966 2.124 2.162 4.726 3.243 7.81 3.243 1.592 0 2.946-.26 4.06-.778.62-.26 1.265-.61 1.93-1.048.668-.442 1.37-.972 2.108-1.595v5.47c-2.59 1.47-5.31 2.206-8.157 2.206-4.286 0-7.945-1.495-10.976-4.487-3.016-3.016-4.524-6.657-4.524-10.916 0-3.822 1.263-7.228 3.788-10.22 3.108-3.663 7.13-5.495 12.063-5.495 2.693 0 5.297.727 7.807 2.184zM197.892 155.11v-4.252h-20.225v29.992h20.225v-4.252h-15.698v-7.593l8.496-3.162v-.038l-8.496-3.16v-7.534"/><path fill="#595758" d="M330 155.11h-15.698v7.534l8.497 3.16v.038l-8.498 3.162v7.593H330v4.253h-20.225v-29.992H330v4.253zM235.377 152.376v5.352c-2.616-2.188-5.323-3.284-8.12-3.284-3.083 0-5.68 1.108-7.79 3.323-2.124 2.2-3.186 4.895-3.186 8.08 0 3.146 1.063 5.802 3.187 7.966 2.124 2.162 4.727 3.243 7.808 3.243 1.594 0 2.947-.26 4.06-.778.623-.26 1.266-.61 1.935-1.048.666-.442 1.367-.972 2.106-1.595v5.47c-2.59 1.47-5.31 2.206-8.16 2.206-4.286 0-7.945-1.495-10.974-4.487-3.02-3.016-4.527-6.657-4.527-10.916 0-3.822 1.263-7.228 3.79-10.22 3.106-3.663 7.127-5.495 12.062-5.495 2.694 0 5.297.727 7.81 2.184zM241.834 165.634c0-4.222 1.547-7.847 4.644-10.88 3.08-3.03 6.784-4.544 11.11-4.544 4.273 0 7.94 1.53 10.993 4.585 3.07 3.056 4.606 6.725 4.606 11.012 0 4.313-1.54 7.97-4.623 10.976-3.095 3.018-6.832 4.527-11.21 4.527-3.87 0-7.348-1.34-10.43-4.023-3.392-2.963-5.09-6.848-5.09-11.653zm4.566.05c0 3.313 1.112 6.036 3.34 8.17 2.216 2.135 4.772 3.203 7.675 3.203 3.145 0 5.8-1.09 7.963-3.263 2.162-2.197 3.244-4.877 3.244-8.034 0-3.196-1.07-5.874-3.206-8.036-2.122-2.174-4.75-3.26-7.885-3.26-3.122 0-5.757 1.087-7.906 3.26-2.15 2.15-3.224 4.8-3.224 7.96z"/><path fill="#045B9E" d="M111.142 180.85L97.22 150.902 83.61 180.85h4.953l8.755-18.946 3.453 7.376-5.508 2.142 7.96 3.096 2.966 6.332M27.532 180.85l-13.61-29.948L0 180.85h4.953l8.87-18.946 3.328 7.202-5.958 2.316 8.57 3.33 2.816 6.098"/></g></svg>