<svg xmlns="http://www.w3.org/2000/svg" width="117" height="36" viewBox="0 0 117 36"><path fill="#045B9E" d="M59.092 16.445V5.89h2.538c1.063 0 1.9.104 2.517.313.66.206 1.26.553 1.797 1.046 1.09.993 1.635 2.3 1.635 3.916 0 1.623-.568 2.934-1.703 3.938-.57.5-1.167.85-1.79 1.047-.586.195-1.736.294-2.807.294h-2.188zm1.593-1.496h1.04c.716 0 1.31-.078 1.786-.23.476-.158.903-.41 1.286-.756.783-.716 1.175-1.648 1.175-2.797 0-1.158-.387-2.097-1.16-2.816-.7-.642-1.726-.964-3.085-.964h-1.04v7.563z"/><path fill="#595758" d="M71.576 29.742V19.186h2.54c1.062 0 1.9.105 2.515.314.662.205 1.26.554 1.798 1.047 1.09.993 1.635 2.298 1.635 3.917 0 1.623-.567 2.935-1.7 3.938-.572.502-1.168.85-1.793 1.046-.584.196-1.734.294-2.804.294h-2.19zm1.593-1.497h1.04c.715 0 1.31-.076 1.785-.226.473-.16.903-.414 1.285-.76.784-.716 1.175-1.647 1.175-2.796 0-1.158-.387-2.096-1.16-2.817-.7-.642-1.727-.964-3.085-.964h-1.042v7.562z"/><path fill="#045B9E" d="M70.065 5.904l3.082 6.668 3.122-6.668h1.742l-4.9 10.54-4.79-10.54h1.743zM88.493 16.445V5.495L95.87 12.9V5.89h1.59v10.873l-7.374-7.386v7.067h-1.593zM107.63 6.423v1.884c-.92-.77-1.875-1.156-2.858-1.156-1.085 0-2 .392-2.74 1.17-.75.775-1.123 1.723-1.123 2.844 0 1.107.374 2.042 1.12 2.803.75.76 1.664 1.142 2.748 1.142.56 0 1.038-.093 1.43-.274.218-.092.445-.216.68-.37.235-.155.48-.342.74-.56v1.924c-.91.517-1.867.776-2.87.776-1.51 0-2.796-.526-3.863-1.58-1.063-1.062-1.592-2.343-1.592-3.842 0-1.345.443-2.543 1.332-3.597 1.095-1.29 2.51-1.935 4.246-1.935.95.002 1.866.26 2.75.77zM117 7.386V5.89h-7.12v10.555H117V14.95h-5.525v-2.674l2.99-1.112v-.014l-2.99-1.113v-2.65"/><path fill="#595758" d="M89.196 20.682H83.67v2.65l2.99 1.114v.014l-2.99 1.113v2.672h5.526v1.497h-7.118V19.186h7.118v1.496zM55.896 19.72v1.884c-.92-.77-1.874-1.156-2.86-1.156-1.083 0-1.997.39-2.74 1.17-.748.773-1.12 1.723-1.12 2.843 0 1.108.373 2.043 1.12 2.804.748.76 1.664 1.14 2.75 1.14.56 0 1.035-.09 1.427-.272.22-.092.445-.214.68-.37.234-.154.482-.34.743-.56v1.924c-.912.52-1.87.777-2.873.777-1.507 0-2.796-.527-3.863-1.58-1.06-1.062-1.592-2.343-1.592-3.842 0-1.344.443-2.543 1.332-3.595 1.095-1.29 2.51-1.935 4.246-1.935.948.002 1.865.257 2.75.77zM58.167 24.386c0-1.486.545-2.762 1.635-3.827 1.084-1.068 2.39-1.602 3.91-1.602 1.505 0 2.795.538 3.87 1.614 1.08 1.075 1.62 2.367 1.62 3.876 0 1.518-.543 2.805-1.627 3.864-1.09 1.062-2.405 1.592-3.944 1.592-1.363 0-2.587-.472-3.67-1.416-1.196-1.044-1.793-2.412-1.793-4.102zm1.607.018c0 1.166.393 2.124 1.176 2.876.78.75 1.68 1.126 2.7 1.126 1.108 0 2.04-.383 2.804-1.148.76-.773 1.142-1.716 1.142-2.827 0-1.123-.377-2.066-1.13-2.828-.746-.764-1.672-1.147-2.775-1.147-1.098 0-2.025.383-2.78 1.147-.758.756-1.136 1.69-1.136 2.802z"/><path fill="#045B9E" d="M86.47 16.445l-4.9-10.54-4.79 10.54h1.744l3.08-6.67 1.215 2.597-1.94.754 2.802 1.09 1.044 2.23M57.044 16.445l-4.79-10.54-4.9 10.54H49.1l3.12-6.67 1.17 2.537-2.098.814L54.31 14.3l.99 2.145"/><g><path fill="#045B9E" d="M25.483 7.742V3.25L9.42.245V14.94L0 18l9.42 3.064v14.69l16.063-3.002V28.26l-10.208 1.327V6.414"/><path fill="#595758" d="M43.402 18l-3.066-1.76V5.788L29.7 3.8v4.325l7.22.938V26.94l-7.22.937V32.2l10.636-1.987V19.76"/></g></svg>