<?xml version="1.0" encoding="utf-8"?>
<!-- Generator: Adobe Illustrator 19.0.0, SVG Export Plug-In . SVG Version: 6.00 Build 0)  -->
<svg version="1.1" id="レイヤー_1" xmlns="http://www.w3.org/2000/svg" xmlns:xlink="http://www.w3.org/1999/xlink" x="0px"
	 y="0px" width="329px" height="32px" viewBox="-141 381 329 32" style="enable-background:new -141 381 329 32;"
	 xml:space="preserve">
<style type="text/css">
	.st0{fill:#FFFFFF;}
</style>
<path class="st0" d="M-107.5,412v-29.8h7.2c3,0,5.4,0.3,7.1,0.9c1.9,0.6,3.6,1.6,5.1,3c3.1,2.8,4.6,6.5,4.6,11.1
	c0,4.6-1.6,8.3-4.8,11.1c-1.6,1.4-3.3,2.4-5.1,3c-1.6,0.6-4.9,0.8-7.9,0.8L-107.5,412L-107.5,412z M-103,407.8h2.9
	c2,0,3.7-0.2,5-0.6c1.3-0.4,2.6-1.2,3.6-2.1c2.2-2,3.3-4.7,3.3-7.9c0-3.3-1.1-5.9-3.3-8c-2-1.8-4.9-2.7-8.7-2.7h-2.9L-103,407.8
	L-103,407.8z"/>
<path class="st0" d="M137.8,412v-29.8h7.2c3,0,5.4,0.3,7.1,0.9c1.9,0.6,3.6,1.6,5.1,3c3.1,2.8,4.6,6.5,4.6,11.1
	c0,4.6-1.6,8.3-4.8,11.1c-1.6,1.4-3.3,2.4-5.1,3c-1.6,0.6-4.9,0.8-7.9,0.8L137.8,412L137.8,412z M142.3,407.8h2.9c2,0,3.7-0.2,5-0.6
	c1.3-0.4,2.5-1.2,3.6-2.1c2.2-2,3.3-4.7,3.3-7.9c0-3.3-1.1-5.9-3.3-8c-2-1.8-4.9-2.7-8.7-2.7h-2.9L142.3,407.8L142.3,407.8z"/>
<path class="st0" d="M-76.4,382.2l8.7,18.9l8.8-18.9h4.9L-67.8,412l-13.5-29.8C-81.4,382.2-76.4,382.2-76.4,382.2z M-24.4,412v-31
	L-3.5,402v-19.8H1v30.7L-19.9,392v20H-24.4L-24.4,412z M29.7,383.7v5.3c-2.6-2.2-5.3-3.3-8.1-3.3c-3.1,0-5.6,1.1-7.8,3.3
	c-2.1,2.2-3.2,4.9-3.2,8c0,3.1,1.1,5.8,3.2,7.9c2.1,2.1,4.7,3.2,7.8,3.2c1.6,0,2.9-0.3,4-0.8c0.6-0.3,1.3-0.6,1.9-1
	c0.7-0.4,1.4-1,2.1-1.6v5.4c-2.6,1.5-5.3,2.2-8.1,2.2c-4.3,0-7.9-1.5-10.9-4.5c-3-3-4.5-6.6-4.5-10.9c0-3.8,1.3-7.2,3.8-10.2
	c3.1-3.6,7.1-5.5,12-5.5C24.6,381.5,27.2,382.2,29.7,383.7L29.7,383.7z M56.2,386.4v-4.2H36.1V412h20.1v-4.2H40.6v-7.6l8.5-3.1v0
	l-8.5-3.1v-7.5"/>
<path class="st0" d="M187.6,386.4H172v7.5l8.5,3.1v0l-8.5,3.1v7.6h15.6v4.2h-20.1v-29.8h20.1V386.4z M93.5,383.7v5.3
	c-2.6-2.2-5.3-3.3-8.1-3.3c-3.1,0-5.6,1.1-7.7,3.3c-2.1,2.2-3.2,4.9-3.2,8c0,3.1,1.1,5.8,3.2,7.9c2.1,2.1,4.7,3.2,7.8,3.2
	c1.6,0,2.9-0.3,4-0.8c0.6-0.3,1.3-0.6,1.9-1c0.7-0.4,1.4-1,2.1-1.6v5.4c-2.6,1.5-5.3,2.2-8.1,2.2c-4.3,0-7.9-1.5-10.9-4.5
	c-3-3-4.5-6.6-4.5-10.9c0-3.8,1.3-7.2,3.8-10.2c3.1-3.6,7.1-5.5,12-5.5C88.4,381.5,91,382.2,93.5,383.7L93.5,383.7z M99.9,396.9
	c0-4.2,1.5-7.8,4.6-10.8c3.1-3,6.8-4.5,11.1-4.5c4.2,0,7.9,1.5,10.9,4.6c3.1,3,4.6,6.7,4.6,11c0,4.3-1.5,7.9-4.6,10.9
	c-3.1,3-6.8,4.5-11.1,4.5c-3.9,0-7.3-1.3-10.4-4C101.6,405.5,99.9,401.7,99.9,396.9z M104.5,396.9c0,3.3,1.1,6,3.3,8.1
	c2.2,2.1,4.7,3.2,7.6,3.2c3.1,0,5.8-1.1,7.9-3.2c2.1-2.2,3.2-4.9,3.2-8c0-3.2-1.1-5.8-3.2-8c-2.1-2.2-4.7-3.2-7.8-3.2
	c-3.1,0-5.7,1.1-7.9,3.2C105.5,391.2,104.5,393.8,104.5,396.9L104.5,396.9z"/>
<path class="st0" d="M-30.1,412l-13.8-29.8L-57.5,412h4.9l8.7-18.8l3.4,7.3l-5.5,2.1l7.9,3.1l2.9,6.3 M-113.3,412l-13.5-29.8
	l-13.9,29.8h4.9l8.8-18.8l3.3,7.2l-5.9,2.3l8.5,3.3l2.8,6.1"/>
</svg>
