<?xml version="1.0" encoding="utf-8"?>
<!-- Generator: Adobe Illustrator 19.0.0, SVG Export Plug-In . SVG Version: 6.00 Build 0)  -->
<svg version="1.1" id="レイヤー_1" xmlns="http://www.w3.org/2000/svg" xmlns:xlink="http://www.w3.org/1999/xlink" x="0px"
	 y="0px" width="200px" height="34px" viewBox="-205 380 200 34" style="enable-background:new -205 380 200 34;"
	 xml:space="preserve">
<style type="text/css">
	.st0{fill:#FFFFFF;}
</style>
<path class="st0" d="M-181.3,387.5v-4.2l-14.9-2.8v13.7l-8.8,2.9l8.8,2.9v13.7l14.9-2.8v-4.2l-9.5,1.2v-21.6"/>
<path class="st0" d="M-164.6,397l-2.9-1.6v-9.7l-9.9-1.9v4l6.7,0.9v16.6l-6.7,0.9v4l9.9-1.8v-9.7"/>
<g>
	<path class="st0" d="M-144.8,403.8v-14.1h3.4c1.4,0,2.5,0.1,3.4,0.4c0.9,0.3,1.7,0.7,2.4,1.4c1.5,1.3,2.2,3.1,2.2,5.2
		c0,2.2-0.8,3.9-2.3,5.3c-0.8,0.7-1.6,1.1-2.4,1.4c-0.8,0.3-2.3,0.4-3.8,0.4L-144.8,403.8L-144.8,403.8z M-142.7,401.8h1.4
		c1,0,1.8-0.1,2.4-0.3c0.6-0.2,1.2-0.6,1.7-1c1-1,1.6-2.2,1.6-3.7c0-1.6-0.5-2.8-1.6-3.8c-0.9-0.9-2.3-1.3-4.1-1.3h-1.4
		L-142.7,401.8L-142.7,401.8z"/>
	<path class="st0" d="M-28.6,403.8v-14.1h3.4c1.4,0,2.5,0.1,3.4,0.4c0.9,0.3,1.7,0.7,2.4,1.4c1.5,1.3,2.2,3.1,2.2,5.2
		c0,2.2-0.8,3.9-2.3,5.3c-0.8,0.7-1.6,1.1-2.4,1.4c-0.8,0.3-2.3,0.4-3.8,0.4L-28.6,403.8L-28.6,403.8z M-26.5,401.8h1.4
		c1,0,1.8-0.1,2.4-0.3c0.6-0.2,1.2-0.6,1.7-1c1.1-1,1.6-2.2,1.6-3.7c0-1.6-0.5-2.8-1.6-3.8c-0.9-0.9-2.3-1.3-4.1-1.3h-1.4
		L-26.5,401.8L-26.5,401.8z"/>
	<path class="st0" d="M-130.1,389.7l4.1,8.9l4.2-8.9h2.3l-6.6,14.1l-6.4-14.1H-130.1L-130.1,389.7z M-105.5,403.8v-14.7l9.9,9.9
		v-9.4h2.1v14.6l-9.9-9.9v9.5C-103.3,403.8-105.5,403.8-105.5,403.8z M-79.8,390.4v2.5c-1.2-1-2.5-1.5-3.8-1.5
		c-1.5,0-2.7,0.5-3.7,1.6c-1,1-1.5,2.3-1.5,3.8c0,1.5,0.5,2.7,1.5,3.8c1,1,2.2,1.5,3.7,1.5c0.8,0,1.4-0.1,1.9-0.4
		c0.3-0.1,0.6-0.3,0.9-0.5c0.3-0.2,0.6-0.5,1-0.8v2.6c-1.2,0.7-2.5,1-3.8,1c-2,0-3.7-0.7-5.2-2.1c-1.4-1.4-2.1-3.1-2.1-5.1
		c0-1.8,0.6-3.4,1.8-4.8c1.5-1.7,3.4-2.6,5.7-2.6C-82.2,389.4-81,389.7-79.8,390.4L-79.8,390.4z M-67.3,391.7v-2h-9.5v14.1h9.5v-2
		h-7.4v-3.6l4-1.5v0l-4-1.5v-3.5"/>
	<path class="st0" d="M-5,391.7h-7.4v3.5l4,1.5v0l-4,1.5v3.6H-5v2h-9.5v-14.1H-5V391.7z M-49.6,390.4v2.5c-1.2-1-2.5-1.5-3.8-1.5
		c-1.4,0-2.7,0.5-3.7,1.6c-1,1-1.5,2.3-1.5,3.8c0,1.5,0.5,2.7,1.5,3.8c1,1,2.2,1.5,3.7,1.5c0.8,0,1.4-0.1,1.9-0.4
		c0.3-0.1,0.6-0.3,0.9-0.5c0.3-0.2,0.6-0.5,1-0.8v2.6c-1.2,0.7-2.5,1-3.8,1c-2,0-3.7-0.7-5.2-2.1c-1.4-1.4-2.1-3.1-2.1-5.1
		c0-1.8,0.6-3.4,1.8-4.8c1.5-1.7,3.4-2.6,5.7-2.6C-52,389.4-50.8,389.7-49.6,390.4L-49.6,390.4z M-46.6,396.6c0-2,0.7-3.7,2.2-5.1
		c1.4-1.4,3.2-2.1,5.2-2.1c2,0,3.7,0.7,5.2,2.2c1.4,1.4,2.2,3.2,2.2,5.2c0,2-0.7,3.8-2.2,5.2c-1.5,1.4-3.2,2.1-5.3,2.1
		c-1.8,0-3.5-0.6-4.9-1.9C-45.8,400.7-46.6,398.9-46.6,396.6z M-44.4,396.7c0,1.6,0.5,2.8,1.6,3.9c1,1,2.2,1.5,3.6,1.5
		c1.5,0,2.7-0.5,3.8-1.5c1-1,1.5-2.3,1.5-3.8c0-1.5-0.5-2.8-1.5-3.8c-1-1-2.2-1.5-3.7-1.5c-1.5,0-2.7,0.5-3.7,1.5
		C-43.9,393.9-44.4,395.2-44.4,396.7L-44.4,396.7z"/>
	<path class="st0" d="M-108.2,403.8l-6.6-14.1l-6.4,14.1h2.3l4.1-8.9l1.6,3.5l-2.6,1l3.8,1.5l1.4,3 M-147.6,403.8l-6.4-14.1
		l-6.6,14.1h2.3l4.2-8.9l1.6,3.4l-2.8,1.1l4,1.6l1.3,2.9"/>
</g>
</svg>
