<?xml version="1.0" encoding="utf-8"?>
<!-- Generator: Adobe Illustrator 19.0.0, SVG Export Plug-In . SVG Version: 6.00 Build 0)  -->
<svg version="1.1" id="レイヤー_1" xmlns="http://www.w3.org/2000/svg" xmlns:xlink="http://www.w3.org/1999/xlink" x="0px"
	 y="0px" width="330px" height="182px" viewBox="-140 306 330 182" style="enable-background:new -140 306 330 182;"
	 xml:space="preserve">
<style type="text/css">
	.st0{fill:#FFFFFF;}
</style>
<path class="st0" d="M33.3,330.6V316l-52.2-9.8v47.7l-30.6,9.9l30.6,9.9v47.7l52.2-9.7v-14.6l-33.2,4.3v-75.2"/>
<path class="st0" d="M91.4,363.9l-10-5.7v-33.9l-34.5-6.5v14l23.4,3v58l-23.4,3v14l34.5-6.5v-33.9"/>
<g>
	<path class="st0" d="M-106.6,486.9v-30h7.2c3,0,5.4,0.3,7.1,0.9c1.9,0.6,3.6,1.6,5.1,3c3.1,2.8,4.6,6.5,4.6,11.1
		c0,4.6-1.6,8.3-4.8,11.2c-1.6,1.4-3.3,2.4-5.1,3c-1.7,0.6-4.9,0.8-8,0.8L-106.6,486.9L-106.6,486.9z M-102.1,482.6h3
		c2,0,3.7-0.2,5.1-0.6c1.3-0.4,2.6-1.2,3.6-2.2c2.2-2,3.3-4.7,3.3-7.9c0-3.3-1.1-6-3.3-8c-2-1.8-4.9-2.7-8.8-2.7h-3L-102.1,482.6
		L-102.1,482.6z"/>
	<path class="st0" d="M139.9,486.9v-30h7.2c3,0,5.4,0.3,7.1,0.9c1.9,0.6,3.6,1.6,5.1,3c3.1,2.8,4.6,6.5,4.6,11.1
		c0,4.6-1.6,8.3-4.8,11.2c-1.6,1.4-3.3,2.4-5.1,3c-1.7,0.6-4.9,0.8-8,0.8L139.9,486.9L139.9,486.9z M144.5,482.6h3
		c2,0,3.7-0.2,5.1-0.6c1.3-0.4,2.6-1.2,3.6-2.2c2.2-2,3.3-4.7,3.3-7.9c0-3.3-1.1-6-3.3-8c-2-1.8-4.9-2.7-8.8-2.7h-3L144.5,482.6
		L144.5,482.6z"/>
	<path class="st0" d="M-75.5,456.9l8.8,18.9l8.9-18.9h5l-13.9,29.9l-13.6-30L-75.5,456.9L-75.5,456.9z M-23.1,486.9v-31.1l21,21
		v-19.9h4.5v30.9l-21-21v20.1H-23.1z M31.3,458.4v5.4c-2.6-2.2-5.3-3.3-8.1-3.3c-3.1,0-5.7,1.1-7.8,3.3c-2.1,2.2-3.2,4.9-3.2,8.1
		c0,3.1,1.1,5.8,3.2,8c2.1,2.2,4.7,3.2,7.8,3.2c1.6,0,2.9-0.3,4.1-0.8c0.6-0.3,1.3-0.6,1.9-1c0.7-0.4,1.4-1,2.1-1.6v5.5
		c-2.6,1.5-5.3,2.2-8.2,2.2c-4.3,0-7.9-1.5-11-4.5c-3-3-4.5-6.7-4.5-10.9c0-3.8,1.3-7.2,3.8-10.2c3.1-3.7,7.1-5.5,12.1-5.5
		C26.2,456.2,28.8,456.9,31.3,458.4L31.3,458.4z M57.9,461.1v-4.3H37.7v30h20.2v-4.3H42.2V475l8.5-3.2v0l-8.5-3.2v-7.5"/>
	<path class="st0" d="M190,461.1h-15.7v7.5l8.5,3.2v0l-8.5,3.2v7.6H190v4.3h-20.2v-30H190V461.1L190,461.1z M95.4,458.4v5.4
		c-2.6-2.2-5.3-3.3-8.1-3.3c-3.1,0-5.7,1.1-7.8,3.3c-2.1,2.2-3.2,4.9-3.2,8.1c0,3.1,1.1,5.8,3.2,8c2.1,2.2,4.7,3.2,7.8,3.2
		c1.6,0,2.9-0.3,4.1-0.8c0.6-0.3,1.3-0.6,1.9-1c0.7-0.4,1.4-1,2.1-1.6v5.5c-2.6,1.5-5.3,2.2-8.2,2.2c-4.3,0-7.9-1.5-11-4.5
		c-3-3-4.5-6.7-4.5-10.9c0-3.8,1.3-7.2,3.8-10.2c3.1-3.7,7.1-5.5,12.1-5.5C90.3,456.2,92.9,456.9,95.4,458.4L95.4,458.4z
		 M101.8,471.6c0-4.2,1.5-7.8,4.6-10.9c3.1-3,6.8-4.5,11.1-4.5c4.3,0,7.9,1.5,11,4.6c3.1,3.1,4.6,6.7,4.6,11c0,4.3-1.5,8-4.6,11
		c-3.1,3-6.8,4.5-11.2,4.5c-3.9,0-7.3-1.3-10.4-4C103.5,480.3,101.8,476.4,101.8,471.6L101.8,471.6z M106.4,471.7
		c0,3.3,1.1,6,3.3,8.2c2.2,2.1,4.8,3.2,7.7,3.2c3.1,0,5.8-1.1,8-3.3c2.2-2.2,3.2-4.9,3.2-8c0-3.2-1.1-5.9-3.2-8
		c-2.1-2.2-4.8-3.3-7.9-3.3c-3.1,0-5.8,1.1-7.9,3.3C107.5,465.9,106.4,468.5,106.4,471.7L106.4,471.7z"/>
	<path class="st0" d="M-28.9,486.9l-13.9-29.9l-13.6,29.9h5l8.8-18.9l3.5,7.4l-5.5,2.1l8,3.1l3,6.3 M-112.5,486.9l-13.6-29.9
		l-13.9,29.9h5l8.9-18.9l3.3,7.2l-6,2.3l8.6,3.3l2.8,6.1"/>
</g>
</svg>
