<svg xmlns="http://www.w3.org/2000/svg" width="329" height="32" viewBox="0 0 329 32"><path fill="#045B9E" d="M33.537 31.025V1.19h7.175c3 0 5.373.296 7.11.888 1.87.58 3.563 1.565 5.083 2.957 3.08 2.81 4.62 6.498 4.62 11.072 0 4.588-1.605 8.297-4.813 11.13-1.61 1.418-3.297 2.405-5.062 2.957-1.65.554-4.9.83-7.93.83h-6.183zm4.502-4.23h2.942c2.022 0 3.704-.216 5.044-.642 1.34-.448 2.55-1.164 3.632-2.143 2.216-2.023 3.324-4.656 3.324-7.904 0-3.27-1.095-5.926-3.285-7.96-1.97-1.817-4.877-2.728-8.715-2.728H38.04v21.376z"/><path fill="#595758" d="M278.836 31.025V1.19h7.177c3.002 0 5.372.296 7.11.888 1.87.58 3.562 1.565 5.082 2.957 3.08 2.81 4.62 6.498 4.62 11.072 0 4.588-1.606 8.297-4.812 11.13-1.61 1.418-3.3 2.405-5.064 2.957-1.65.554-4.902.83-7.93.83h-6.184zm4.504-4.23h2.942c2.02 0 3.704-.216 5.043-.642 1.34-.448 2.55-1.164 3.633-2.143 2.215-2.023 3.323-4.656 3.323-7.904 0-3.27-1.094-5.926-3.282-7.96-1.974-1.817-4.878-2.728-8.717-2.728h-2.94v21.376z"/><path fill="#045B9E" d="M64.552 1.232l8.71 18.85 8.824-18.85h4.928l-13.85 29.793-13.54-29.793h4.928zM116.643 31.025V.073L137.49 21.01V1.19h4.5v30.737L121.146 11.05v19.975h-4.502zM170.732 2.7v5.323c-2.6-2.177-5.293-3.267-8.075-3.267-3.067 0-5.65 1.102-7.75 3.306-2.113 2.19-3.17 4.87-3.17 8.04 0 3.128 1.057 5.77 3.17 7.923 2.113 2.15 4.702 3.227 7.77 3.227 1.583 0 2.93-.26 4.038-.774.618-.26 1.26-.605 1.92-1.043.665-.44 1.363-.967 2.097-1.587v5.44c-2.576 1.463-5.28 2.195-8.115 2.195-4.264 0-7.904-1.488-10.92-4.465-3-3-4.5-6.622-4.5-10.86 0-3.8 1.255-7.19 3.768-10.165 3.092-3.645 7.092-5.468 12-5.468 2.68 0 5.27.724 7.767 2.174zM197.22 5.42V1.19H177.1v29.835h20.12v-4.23h-15.616V19.24l8.453-3.145v-.037l-8.453-3.144V5.42"/><path fill="#595758" d="M328.642 5.42h-15.617v7.493l8.453 3.144v.037l-8.453 3.146v7.554h15.617v4.23h-20.12V1.19h20.12v4.23zM234.51 2.7v5.323c-2.602-2.177-5.294-3.267-8.078-3.267-3.066 0-5.648 1.102-7.748 3.306-2.113 2.19-3.17 4.87-3.17 8.04 0 3.128 1.058 5.77 3.17 7.923 2.113 2.15 4.703 3.227 7.767 3.227 1.587 0 2.932-.26 4.04-.774.62-.26 1.26-.605 1.925-1.043.662-.44 1.36-.967 2.095-1.587v5.44c-2.577 1.463-5.283 2.195-8.117 2.195-4.264 0-7.903-1.488-10.917-4.465-3.003-3-4.504-6.622-4.504-10.86 0-3.8 1.257-7.19 3.77-10.165 3.09-3.645 7.09-5.468 12-5.468 2.68 0 5.27.724 7.77 2.174zM240.935 15.888c0-4.2 1.54-7.807 4.62-10.822 3.064-3.015 6.75-4.52 11.052-4.52 4.25 0 7.897 1.52 10.936 4.56 3.054 3.04 4.58 6.69 4.58 10.956 0 4.29-1.532 7.93-4.598 10.92-3.08 3-6.797 4.503-11.15 4.503-3.852 0-7.31-1.334-10.378-4.002-3.375-2.95-5.062-6.816-5.062-11.595zm4.54.048c0 3.297 1.108 6.006 3.325 8.128 2.203 2.125 4.746 3.188 7.634 3.188 3.13 0 5.77-1.084 7.922-3.246 2.15-2.186 3.227-4.852 3.227-7.992 0-3.18-1.063-5.844-3.19-7.994-2.11-2.162-4.726-3.243-7.844-3.243-3.108 0-5.73 1.08-7.867 3.243-2.138 2.137-3.207 4.775-3.207 7.916z"/><path fill="#045B9E" d="M110.922 31.025L97.072 1.232 83.535 31.025h4.927l8.71-18.848 3.435 7.338-5.48 2.13 7.92 3.08 2.95 6.3M27.747 31.025L14.207 1.232.357 31.025h4.93l8.823-18.848 3.31 7.164-5.928 2.306 8.524 3.313 2.803 6.065"/></svg>