<?xml version="1.0" encoding="utf-8"?>
<!-- Generator: Adobe Illustrator 19.0.0, SVG Export Plug-In . SVG Version: 6.00 Build 0)  -->
<svg version="1.1" id="レイヤー_1" xmlns="http://www.w3.org/2000/svg" xmlns:xlink="http://www.w3.org/1999/xlink" x="0px"
	 y="0px" width="117px" height="36px" viewBox="-247 379 117 36" style="enable-background:new -247 379 117 36;"
	 xml:space="preserve">
<style type="text/css">
	.st0{fill:#FFFFFF;}
</style>
<path class="st0" d="M-187.9,395.4v-10.6h2.5c1.1,0,1.9,0.1,2.5,0.3c0.7,0.2,1.3,0.6,1.8,1c1.1,1,1.6,2.3,1.6,3.9
	c0,1.6-0.6,2.9-1.7,3.9c-0.6,0.5-1.2,0.9-1.8,1c-0.6,0.2-1.7,0.3-2.8,0.3L-187.9,395.4L-187.9,395.4z M-186.3,393.9h1
	c0.7,0,1.3-0.1,1.8-0.2c0.5-0.2,0.9-0.4,1.3-0.8c0.8-0.7,1.2-1.6,1.2-2.8c0-1.2-0.4-2.1-1.2-2.8c-0.7-0.6-1.7-1-3.1-1h-1
	L-186.3,393.9L-186.3,393.9z"/>
<path class="st0" d="M-175.4,408.7v-10.6h2.5c1.1,0,1.9,0.1,2.5,0.3c0.7,0.2,1.3,0.6,1.8,1c1.1,1,1.6,2.3,1.6,3.9
	c0,1.6-0.6,2.9-1.7,3.9c-0.6,0.5-1.2,0.9-1.8,1c-0.6,0.2-1.7,0.3-2.8,0.3H-175.4L-175.4,408.7z M-173.8,407.2h1
	c0.7,0,1.3-0.1,1.8-0.2c0.5-0.2,0.9-0.4,1.3-0.8c0.8-0.7,1.2-1.6,1.2-2.8c0-1.2-0.4-2.1-1.2-2.8c-0.7-0.6-1.7-1-3.1-1h-1
	L-173.8,407.2L-173.8,407.2z"/>
<path class="st0" d="M-176.9,384.9l3.1,6.7l3.1-6.7h1.7l-4.9,10.5l-4.8-10.5H-176.9L-176.9,384.9z M-158.5,395.4v-11l7.4,7.4v-7h1.6
	v10.9l-7.4-7.4v7.1L-158.5,395.4L-158.5,395.4z M-139.4,385.4v1.9c-0.9-0.8-1.9-1.2-2.9-1.2c-1.1,0-2,0.4-2.7,1.2
	c-0.8,0.8-1.1,1.7-1.1,2.8c0,1.1,0.4,2,1.1,2.8c0.8,0.8,1.7,1.1,2.7,1.1c0.6,0,1-0.1,1.4-0.3c0.2-0.1,0.4-0.2,0.7-0.4
	c0.2-0.2,0.5-0.3,0.7-0.6v1.9c-0.9,0.5-1.9,0.8-2.9,0.8c-1.5,0-2.8-0.5-3.9-1.6c-1.1-1.1-1.6-2.3-1.6-3.8c0-1.3,0.4-2.5,1.3-3.6
	c1.1-1.3,2.5-1.9,4.2-1.9C-141.2,384.7-140.3,384.9-139.4,385.4L-139.4,385.4z M-130,386.4v-1.5h-7.1v10.6h7.1V394h-5.5v-2.7l3-1.1
	v0l-3-1.1v-2.6"/>
<path class="st0" d="M-157.8,399.7h-5.5v2.6l3,1.1v0l-3,1.1v2.7h5.5v1.5h-7.1v-10.6h7.1C-157.8,398.2-157.8,399.7-157.8,399.7z
	 M-191.1,398.7v1.9c-0.9-0.8-1.9-1.2-2.9-1.2c-1.1,0-2,0.4-2.7,1.2c-0.7,0.8-1.1,1.7-1.1,2.8c0,1.1,0.4,2,1.1,2.8
	c0.7,0.8,1.7,1.1,2.8,1.1c0.6,0,1-0.1,1.4-0.3c0.2-0.1,0.4-0.2,0.7-0.4c0.2-0.2,0.5-0.3,0.7-0.6v1.9c-0.9,0.5-1.9,0.8-2.9,0.8
	c-1.5,0-2.8-0.5-3.9-1.6c-1.1-1.1-1.6-2.3-1.6-3.8c0-1.3,0.4-2.5,1.3-3.6c1.1-1.3,2.5-1.9,4.2-1.9C-192.9,398-192,398.2-191.1,398.7
	L-191.1,398.7z M-188.8,403.4c0-1.5,0.5-2.8,1.6-3.8c1.1-1.1,2.4-1.6,3.9-1.6c1.5,0,2.8,0.5,3.9,1.6c1.1,1.1,1.6,2.4,1.6,3.9
	c0,1.5-0.5,2.8-1.6,3.9c-1.1,1.1-2.4,1.6-3.9,1.6c-1.4,0-2.6-0.5-3.7-1.4C-188.2,406.4-188.8,405.1-188.8,403.4L-188.8,403.4z
	 M-187.2,403.4c0,1.2,0.4,2.1,1.2,2.9c0.8,0.8,1.7,1.1,2.7,1.1c1.1,0,2-0.4,2.8-1.1c0.8-0.8,1.1-1.7,1.1-2.8c0-1.1-0.4-2.1-1.1-2.8
	c-0.7-0.8-1.7-1.1-2.8-1.1c-1.1,0-2,0.4-2.8,1.1C-186.8,401.4-187.2,402.3-187.2,403.4L-187.2,403.4z"/>
<path class="st0" d="M-160.5,395.4l-4.9-10.5l-4.8,10.5h1.7l3.1-6.7l1.2,2.6l-1.9,0.8l2.8,1.1l1,2.2 M-190,395.4l-4.8-10.5
	l-4.9,10.5h1.7l3.1-6.7l1.2,2.5l-2.1,0.8l3,1.2l1,2.1"/>
<g>
	<path class="st0" d="M-221.5,386.7v-4.5l-16.1-3v14.7l-9.4,3.1l9.4,3.1v14.7l16.1-3v-4.5l-10.2,1.3v-23.2"/>
	<path class="st0" d="M-203.6,397l-3.1-1.8v-10.5l-10.6-2v4.3l7.2,0.9v17.9l-7.2,0.9v4.3l10.6-2v-10.5"/>
</g>
</svg>
